<svg id="time_c" width="30" height="30" xmlns="http://www.w3.org/2000/svg" viewBox="0 0 60 60"><defs><style>.cls-1{fill:#007bff;}.cls-2{fill:#fff;}</style></defs><path class="cls-1" d="M30,57.69C20.77,54,6,43.31,6,26.31a24,24,0,0,1,48,0C54,43.31,39.23,54,30,57.69Z"/><path class="cls-2" d="M30,12A14,14,0,1,0,44,26,14,14,0,0,0,30,12Zm0,25.29A11.29,11.29,0,1,1,41.29,26,11.28,11.28,0,0,1,30,37.29Zm5.75-14.8L32.24,26l3.51,3.51a.69.69,0,0,1,0,1l-1.28,1.28a.69.69,0,0,1-1,0L30,28.24l-3.51,3.51a.69.69,0,0,1-1,0l-1.28-1.28a.69.69,0,0,1,0-1L27.76,26l-3.51-3.51a.69.69,0,0,1,0-1l1.28-1.28a.69.69,0,0,1,1,0L30,23.76l3.51-3.51a.69.69,0,0,1,1,0l1.28,1.28a.69.69,0,0,1,0,1Z"/></svg>