<svg id="pin_map" width="30" height="30" xmlns="http://www.w3.org/2000/svg" viewBox="0 0 60 60"><defs><style>.cls-1{fill:#007bff;}.cls-2{fill:#fff;fill-rule:evenodd;}</style></defs><path class="cls-1" d="M30,57.69C20.77,54,6,43.31,6,26.31a24,24,0,0,1,48,0C54,43.31,39.23,54,30,57.69Z"/><path class="cls-2" d="M20.2,32.4A1,1,0,0,1,21,32h5a1,1,0,0,1,0,2H21.5L17,40H43l-4.5-6H34a1,1,0,0,1,0-2h5a1,1,0,0,1,.8.4l6,8a1,1,0,0,1-.2,1.4,1,1,0,0,1-.6.2H15a1,1,0,0,1-1-1,1,1,0,0,1,.2-.6Z"/><path class="cls-2" d="M30,12a6,6,0,1,0,6,6A6,6,0,0,0,30,12Zm-8,6a8,8,0,1,1,9,7.94V37a1,1,0,0,1-2,0V25.94A8,8,0,0,1,22,18Z"/></svg>